<mxfile host="app.diagrams.net" agent="Mozilla/5.0 (Windows NT 10.0; Win64; x64) AppleWebKit/537.36 (KHTML, like Gecko) Chrome/128.0.0.0 Safari/537.36" version="24.7.16" pages="2">
  <diagram name="Project Structure" id="j8qJhIRni1oStsOGBF2z">
    <mxGraphModel dx="1050" dy="557" grid="1" gridSize="10" guides="1" tooltips="1" connect="1" arrows="1" fold="1" page="1" pageScale="1" pageWidth="850" pageHeight="1100" math="0" shadow="0">
      <root>
        <mxCell id="0" />
        <mxCell id="1" parent="0" />
        <mxCell id="5l4iCaDdUa-iZr_uCF5Z-5" style="edgeStyle=orthogonalEdgeStyle;rounded=0;orthogonalLoop=1;jettySize=auto;html=1;entryX=-0.037;entryY=0.485;entryDx=0;entryDy=0;entryPerimeter=0;" parent="1" source="5l4iCaDdUa-iZr_uCF5Z-1" target="5l4iCaDdUa-iZr_uCF5Z-3" edge="1">
          <mxGeometry relative="1" as="geometry">
            <mxPoint x="95" y="180" as="targetPoint" />
            <Array as="points">
              <mxPoint x="95" y="180" />
            </Array>
          </mxGeometry>
        </mxCell>
        <mxCell id="5l4iCaDdUa-iZr_uCF5Z-6" style="edgeStyle=orthogonalEdgeStyle;rounded=0;orthogonalLoop=1;jettySize=auto;html=1;entryX=0.014;entryY=0.5;entryDx=0;entryDy=0;entryPerimeter=0;" parent="1" source="5l4iCaDdUa-iZr_uCF5Z-1" target="5l4iCaDdUa-iZr_uCF5Z-7" edge="1">
          <mxGeometry relative="1" as="geometry">
            <mxPoint x="95" y="260" as="targetPoint" />
          </mxGeometry>
        </mxCell>
        <mxCell id="5l4iCaDdUa-iZr_uCF5Z-10" style="edgeStyle=orthogonalEdgeStyle;rounded=0;orthogonalLoop=1;jettySize=auto;html=1;entryX=0.003;entryY=0.504;entryDx=0;entryDy=0;entryPerimeter=0;" parent="1" source="5l4iCaDdUa-iZr_uCF5Z-1" target="5l4iCaDdUa-iZr_uCF5Z-9" edge="1">
          <mxGeometry relative="1" as="geometry">
            <mxPoint x="95" y="350" as="targetPoint" />
          </mxGeometry>
        </mxCell>
        <mxCell id="5l4iCaDdUa-iZr_uCF5Z-1" value="" style="image;aspect=fixed;html=1;points=[];align=center;fontSize=12;image=img/lib/azure2/general/Folder_Blank.svg;" parent="1" vertex="1">
          <mxGeometry x="70" y="90" width="49.29" height="40" as="geometry" />
        </mxCell>
        <mxCell id="5l4iCaDdUa-iZr_uCF5Z-2" value="Project" style="text;html=1;align=center;verticalAlign=middle;resizable=0;points=[];autosize=1;strokeColor=none;fillColor=none;" parent="1" vertex="1">
          <mxGeometry x="59.290000000000006" y="60" width="60" height="30" as="geometry" />
        </mxCell>
        <mxCell id="5l4iCaDdUa-iZr_uCF5Z-3" value="" style="image;aspect=fixed;html=1;points=[];align=center;fontSize=12;image=img/lib/azure2/general/Folder_Blank.svg;" parent="1" vertex="1">
          <mxGeometry x="119.28999999999999" y="160" width="49.29" height="40" as="geometry" />
        </mxCell>
        <mxCell id="5l4iCaDdUa-iZr_uCF5Z-7" value="" style="image;aspect=fixed;html=1;points=[];align=center;fontSize=12;image=img/lib/azure2/general/Folder_Blank.svg;" parent="1" vertex="1">
          <mxGeometry x="119.28999999999999" y="240" width="49.29" height="40" as="geometry" />
        </mxCell>
        <mxCell id="5l4iCaDdUa-iZr_uCF5Z-9" value="" style="image;aspect=fixed;html=1;points=[];align=center;fontSize=12;image=img/lib/azure2/general/Folder_Blank.svg;" parent="1" vertex="1">
          <mxGeometry x="119.28999999999999" y="320" width="49.29" height="40" as="geometry" />
        </mxCell>
      </root>
    </mxGraphModel>
  </diagram>
  <diagram id="OJj2B-FyzExXRUuURGWV" name="Coyote Time">
    <mxGraphModel dx="2100" dy="1114" grid="1" gridSize="10" guides="1" tooltips="1" connect="1" arrows="1" fold="1" page="1" pageScale="1" pageWidth="850" pageHeight="1100" math="0" shadow="0">
      <root>
        <mxCell id="0" />
        <mxCell id="1" parent="0" />
        <mxCell id="Tdh_wrs4CxAGH1iWitdq-1" value="Coyote Time" style="text;html=1;align=center;verticalAlign=middle;resizable=0;points=[];autosize=1;strokeColor=none;fillColor=none;" vertex="1" parent="1">
          <mxGeometry x="35" y="60" width="90" height="30" as="geometry" />
        </mxCell>
        <mxCell id="Tdh_wrs4CxAGH1iWitdq-4" value="" style="edgeStyle=orthogonalEdgeStyle;rounded=0;orthogonalLoop=1;jettySize=auto;html=1;" edge="1" parent="1" source="Tdh_wrs4CxAGH1iWitdq-2" target="Tdh_wrs4CxAGH1iWitdq-3">
          <mxGeometry relative="1" as="geometry" />
        </mxCell>
        <mxCell id="Tdh_wrs4CxAGH1iWitdq-2" value="Start" style="rounded=1;whiteSpace=wrap;html=1;" vertex="1" parent="1">
          <mxGeometry x="50" y="110" width="60" height="20" as="geometry" />
        </mxCell>
        <mxCell id="Tdh_wrs4CxAGH1iWitdq-6" value="" style="edgeStyle=orthogonalEdgeStyle;rounded=0;orthogonalLoop=1;jettySize=auto;html=1;" edge="1" parent="1" source="Tdh_wrs4CxAGH1iWitdq-3" target="Tdh_wrs4CxAGH1iWitdq-5">
          <mxGeometry relative="1" as="geometry" />
        </mxCell>
        <mxCell id="Tdh_wrs4CxAGH1iWitdq-3" value="Node Timer&lt;div&gt;bool jump_available&lt;/div&gt;&lt;div&gt;float coyote_time&lt;/div&gt;" style="whiteSpace=wrap;html=1;aspect=fixed;align=left;" vertex="1" parent="1">
          <mxGeometry x="25" y="180" width="110" height="110" as="geometry" />
        </mxCell>
        <mxCell id="Tdh_wrs4CxAGH1iWitdq-8" value="" style="edgeStyle=orthogonalEdgeStyle;rounded=0;orthogonalLoop=1;jettySize=auto;html=1;" edge="1" parent="1" source="Tdh_wrs4CxAGH1iWitdq-5" target="Tdh_wrs4CxAGH1iWitdq-7">
          <mxGeometry relative="1" as="geometry" />
        </mxCell>
        <mxCell id="Tdh_wrs4CxAGH1iWitdq-22" value="" style="edgeStyle=orthogonalEdgeStyle;rounded=0;orthogonalLoop=1;jettySize=auto;html=1;" edge="1" parent="1" source="Tdh_wrs4CxAGH1iWitdq-5" target="Tdh_wrs4CxAGH1iWitdq-21">
          <mxGeometry relative="1" as="geometry" />
        </mxCell>
        <mxCell id="Tdh_wrs4CxAGH1iWitdq-5" value="!is_in_floor" style="rhombus;whiteSpace=wrap;html=1;align=center;" vertex="1" parent="1">
          <mxGeometry x="242.5" y="182.5" width="110" height="105" as="geometry" />
        </mxCell>
        <mxCell id="Tdh_wrs4CxAGH1iWitdq-13" value="" style="edgeStyle=orthogonalEdgeStyle;rounded=0;orthogonalLoop=1;jettySize=auto;html=1;" edge="1" parent="1" source="Tdh_wrs4CxAGH1iWitdq-7" target="Tdh_wrs4CxAGH1iWitdq-12">
          <mxGeometry relative="1" as="geometry" />
        </mxCell>
        <mxCell id="Tdh_wrs4CxAGH1iWitdq-18" value="" style="edgeStyle=orthogonalEdgeStyle;rounded=0;orthogonalLoop=1;jettySize=auto;html=1;" edge="1" parent="1" source="Tdh_wrs4CxAGH1iWitdq-7" target="Tdh_wrs4CxAGH1iWitdq-17">
          <mxGeometry relative="1" as="geometry" />
        </mxCell>
        <mxCell id="Tdh_wrs4CxAGH1iWitdq-7" value="jump_available" style="rhombus;whiteSpace=wrap;html=1;" vertex="1" parent="1">
          <mxGeometry x="245" y="345.63" width="105" height="87.5" as="geometry" />
        </mxCell>
        <mxCell id="Tdh_wrs4CxAGH1iWitdq-9" value="True" style="text;html=1;align=center;verticalAlign=middle;resizable=0;points=[];autosize=1;strokeColor=none;fillColor=none;" vertex="1" parent="1">
          <mxGeometry x="300" y="290" width="50" height="30" as="geometry" />
        </mxCell>
        <mxCell id="Tdh_wrs4CxAGH1iWitdq-10" value="False" style="text;html=1;align=center;verticalAlign=middle;resizable=0;points=[];autosize=1;strokeColor=none;fillColor=none;" vertex="1" parent="1">
          <mxGeometry x="340" y="187.5" width="50" height="30" as="geometry" />
        </mxCell>
        <mxCell id="Tdh_wrs4CxAGH1iWitdq-11" value="True" style="text;html=1;align=center;verticalAlign=middle;resizable=0;points=[];autosize=1;strokeColor=none;fillColor=none;" vertex="1" parent="1">
          <mxGeometry x="290" y="433.13" width="50" height="30" as="geometry" />
        </mxCell>
        <mxCell id="Tdh_wrs4CxAGH1iWitdq-15" value="" style="edgeStyle=orthogonalEdgeStyle;rounded=0;orthogonalLoop=1;jettySize=auto;html=1;" edge="1" parent="1" source="Tdh_wrs4CxAGH1iWitdq-12" target="Tdh_wrs4CxAGH1iWitdq-14">
          <mxGeometry relative="1" as="geometry" />
        </mxCell>
        <mxCell id="Tdh_wrs4CxAGH1iWitdq-12" value="Timer_is_stop" style="rhombus;whiteSpace=wrap;html=1;" vertex="1" parent="1">
          <mxGeometry x="245" y="513.13" width="105" height="87.5" as="geometry" />
        </mxCell>
        <mxCell id="Tdh_wrs4CxAGH1iWitdq-47" value="" style="edgeStyle=orthogonalEdgeStyle;rounded=0;orthogonalLoop=1;jettySize=auto;html=1;" edge="1" parent="1" source="Tdh_wrs4CxAGH1iWitdq-14" target="Tdh_wrs4CxAGH1iWitdq-46">
          <mxGeometry relative="1" as="geometry" />
        </mxCell>
        <mxCell id="Tdh_wrs4CxAGH1iWitdq-14" value="timer_start" style="whiteSpace=wrap;html=1;" vertex="1" parent="1">
          <mxGeometry x="237.5" y="694.38" width="120" height="60" as="geometry" />
        </mxCell>
        <mxCell id="Tdh_wrs4CxAGH1iWitdq-16" value="True" style="text;html=1;align=center;verticalAlign=middle;resizable=0;points=[];autosize=1;strokeColor=none;fillColor=none;" vertex="1" parent="1">
          <mxGeometry x="290" y="600.63" width="50" height="30" as="geometry" />
        </mxCell>
        <mxCell id="Tdh_wrs4CxAGH1iWitdq-17" value="Gravity On" style="whiteSpace=wrap;html=1;" vertex="1" parent="1">
          <mxGeometry x="422.5" y="359.38" width="120" height="60" as="geometry" />
        </mxCell>
        <mxCell id="Tdh_wrs4CxAGH1iWitdq-36" style="edgeStyle=orthogonalEdgeStyle;rounded=0;orthogonalLoop=1;jettySize=auto;html=1;entryX=1;entryY=0.5;entryDx=0;entryDy=0;" edge="1" parent="1" source="Tdh_wrs4CxAGH1iWitdq-21">
          <mxGeometry relative="1" as="geometry">
            <mxPoint x="348.75" y="872.19" as="targetPoint" />
            <Array as="points">
              <mxPoint x="610" y="235" />
              <mxPoint x="610" y="860" />
              <mxPoint x="349" y="860" />
            </Array>
          </mxGeometry>
        </mxCell>
        <mxCell id="Tdh_wrs4CxAGH1iWitdq-21" value="jump_available = 1&lt;div&gt;timer_start&lt;/div&gt;" style="whiteSpace=wrap;html=1;" vertex="1" parent="1">
          <mxGeometry x="422.5" y="205" width="120" height="60" as="geometry" />
        </mxCell>
        <mxCell id="Tdh_wrs4CxAGH1iWitdq-23" value="False" style="text;html=1;align=center;verticalAlign=middle;resizable=0;points=[];autosize=1;strokeColor=none;fillColor=none;" vertex="1" parent="1">
          <mxGeometry x="350" y="353.13" width="50" height="30" as="geometry" />
        </mxCell>
        <mxCell id="Tdh_wrs4CxAGH1iWitdq-27" value="" style="edgeStyle=orthogonalEdgeStyle;rounded=0;orthogonalLoop=1;jettySize=auto;html=1;" edge="1" parent="1" source="Tdh_wrs4CxAGH1iWitdq-25" target="Tdh_wrs4CxAGH1iWitdq-26">
          <mxGeometry relative="1" as="geometry" />
        </mxCell>
        <mxCell id="Tdh_wrs4CxAGH1iWitdq-25" value="Start" style="rounded=1;whiteSpace=wrap;html=1;" vertex="1" parent="1">
          <mxGeometry x="725" y="30" width="70" height="30" as="geometry" />
        </mxCell>
        <mxCell id="Tdh_wrs4CxAGH1iWitdq-32" value="" style="edgeStyle=orthogonalEdgeStyle;rounded=0;orthogonalLoop=1;jettySize=auto;html=1;" edge="1" parent="1" source="Tdh_wrs4CxAGH1iWitdq-26" target="Tdh_wrs4CxAGH1iWitdq-30">
          <mxGeometry relative="1" as="geometry" />
        </mxCell>
        <mxCell id="Tdh_wrs4CxAGH1iWitdq-26" value="timeout" style="rhombus;whiteSpace=wrap;html=1;rounded=1;" vertex="1" parent="1">
          <mxGeometry x="720" y="115" width="80" height="80" as="geometry" />
        </mxCell>
        <mxCell id="Tdh_wrs4CxAGH1iWitdq-30" value="jump_available = 0" style="whiteSpace=wrap;html=1;" vertex="1" parent="1">
          <mxGeometry x="700" y="250.63" width="120" height="60" as="geometry" />
        </mxCell>
        <mxCell id="Tdh_wrs4CxAGH1iWitdq-37" value="" style="endArrow=none;dashed=1;html=1;dashPattern=1 3;strokeWidth=2;rounded=0;entryX=0.5;entryY=1;entryDx=0;entryDy=0;" edge="1" parent="1" target="Tdh_wrs4CxAGH1iWitdq-30">
          <mxGeometry width="50" height="50" relative="1" as="geometry">
            <mxPoint x="370" y="860" as="sourcePoint" />
            <mxPoint x="530" y="450" as="targetPoint" />
            <Array as="points">
              <mxPoint x="560" y="860" />
              <mxPoint x="760" y="860" />
            </Array>
          </mxGeometry>
        </mxCell>
        <mxCell id="Tdh_wrs4CxAGH1iWitdq-45" value="True" style="text;html=1;align=center;verticalAlign=middle;resizable=0;points=[];autosize=1;strokeColor=none;fillColor=none;" vertex="1" parent="1">
          <mxGeometry x="760" y="187.5" width="50" height="30" as="geometry" />
        </mxCell>
        <mxCell id="Tdh_wrs4CxAGH1iWitdq-49" value="" style="edgeStyle=orthogonalEdgeStyle;rounded=0;orthogonalLoop=1;jettySize=auto;html=1;" edge="1" parent="1" source="Tdh_wrs4CxAGH1iWitdq-46" target="Tdh_wrs4CxAGH1iWitdq-48">
          <mxGeometry relative="1" as="geometry" />
        </mxCell>
        <mxCell id="Tdh_wrs4CxAGH1iWitdq-46" value="jump_available" style="rhombus;whiteSpace=wrap;html=1;" vertex="1" parent="1">
          <mxGeometry x="236.25" y="800" width="122.5" height="115.62" as="geometry" />
        </mxCell>
        <mxCell id="Tdh_wrs4CxAGH1iWitdq-51" value="" style="edgeStyle=orthogonalEdgeStyle;rounded=0;orthogonalLoop=1;jettySize=auto;html=1;" edge="1" parent="1" source="Tdh_wrs4CxAGH1iWitdq-48" target="Tdh_wrs4CxAGH1iWitdq-50">
          <mxGeometry relative="1" as="geometry" />
        </mxCell>
        <mxCell id="Tdh_wrs4CxAGH1iWitdq-48" value="jump()" style="whiteSpace=wrap;html=1;" vertex="1" parent="1">
          <mxGeometry x="237.5" y="960" width="120" height="60" as="geometry" />
        </mxCell>
        <mxCell id="Tdh_wrs4CxAGH1iWitdq-50" value="End" style="rounded=1;whiteSpace=wrap;html=1;" vertex="1" parent="1">
          <mxGeometry x="50" y="970" width="122.5" height="40" as="geometry" />
        </mxCell>
        <mxCell id="Tdh_wrs4CxAGH1iWitdq-52" value="True" style="text;html=1;align=center;verticalAlign=middle;resizable=0;points=[];autosize=1;strokeColor=none;fillColor=none;" vertex="1" parent="1">
          <mxGeometry x="300" y="910" width="50" height="30" as="geometry" />
        </mxCell>
      </root>
    </mxGraphModel>
  </diagram>
</mxfile>
